<?xml version="1.0" encoding="UTF-8" standalone="no"?>

<svg
   xmlns:xlink="http://www.w3.org/1999/xlink"
   xmlns:svg="http://www.w3.org/2000/svg"
   xmlns="http://www.w3.org/2000/svg"
   xmlns:mingh="http://www.minghworld.com"
   width="300px"
   height="300px" >
   
	<defs>
		
		<!-- Birth -->
		<path id="birth" style="fill:#00f;stroke:none;"
         d="M 208.95,150.7 C 208.95,152.82 207.21,154.55 205.06,154.55 C 202.91,154.55 201.17,152.82 201.17,150.7 C 201.17,148.58 202.91,146.86 205.06,146.86 C 207.21,146.86 208.95,148.58 208.95,150.7 z" />
		 
		<!-- Diamond -->
		<path id="diamond" style="fill:none;stroke:#000;stroke-width:0.25px;"
         d="M 207.89,150.7 C 207.89,149.16 206.62,147.9 205.06,147.9 C 203.5,147.9 202.23,149.16 202.23,150.7 C 202.23,152.25 203.5,153.5 205.06,153.5 C 206.62,153.5 207.89,152.25 207.89,150.7 z" />
		 
		<!-- Text Path -->
		<path id="txtpath" style="fill:none;stroke:#f0f;stroke-width:0.25px;"
		 d="M 93,150 L 198,150"/>
		
	</defs>	
	
	 <g>	
		 <!-- Shape -->
		<path id="shape" style="stroke:#000;stroke-width:0.25px;" fill="none"
			d="M 83.33,140.82 C 90.84,140.82 101.19,140.82 112.77,140.82 C 124.36,140.82 137.18,140.82 150.0,140.82 C 162.82,140.82 175.64,140.82 187.23,140.82 C 198.81,140.82 209.16,140.82 216.67,140.82 C 217.02,140.82 217.37,140.89 217.69,141.02 C 218.01,141.15 218.3,141.35 218.55,141.59 C 218.79,141.83 218.99,142.13 219.12,142.44 C 219.25,142.76 219.32,143.1 219.32,143.45 C 219.32,148.11 219.32,152.77 219.32,156.55 C 219.32,156.9 219.25,157.24 219.12,157.56 C 218.99,157.87 218.79,158.17 218.55,158.41 C 218.3,158.65 218.01,158.85 217.69,158.98 C 217.37,159.11 217.02,159.18 216.67,159.18 C 209.16,159.18 198.81,159.18 187.23,159.18 C 175.64,159.18 162.82,159.18 150.0,159.18 C 137.18,159.18 124.36,159.18 112.77,159.18 C 101.19,159.18 90.84,159.18 83.33,159.18 C 82.98,159.18 82.63,159.11 82.31,158.98 C 81.99,158.85 81.7,158.65 81.45,158.41 C 81.21,158.17 81.01,157.87 80.88,157.56 C 80.75,157.24 80.68,156.9 80.68,156.55 C 80.68,152.77 80.68,148.11 80.68,143.45 C 80.68,143.1 80.75,142.76 80.88,142.44 C 81.01,142.13 81.21,141.83 81.45,141.59 C 81.7,141.35 81.99,141.15 82.31,141.02 C 82.63,140.89 82.98,140.82 83.33,140.82 z M 85.97,144.31 C 85.97,144.08 85.93,143.85 85.84,143.64 C 85.75,143.43 85.62,143.24 85.45,143.07 C 85.29,142.91 85.09,142.78 84.88,142.69 C 84.67,142.61 84.43,142.56 84.2,142.56 C 83.97,142.56 83.74,142.61 83.53,142.69 C 83.31,142.78 83.12,142.91 82.95,143.07 C 82.79,143.24 82.66,143.43 82.57,143.64 C 82.48,143.85 82.43,144.08 82.43,144.31 C 82.43,144.54 82.48,144.77 82.57,144.98 C 82.66,145.19 82.79,145.38 82.95,145.55 C 83.12,145.71 83.31,145.84 83.53,145.92 C 83.74,146.01 83.97,146.06 84.2,146.06 C 84.43,146.06 84.67,146.01 84.88,145.92 C 85.09,145.84 85.29,145.71 85.45,145.55 C 85.62,145.38 85.75,145.19 85.84,144.98 C 85.93,144.77 85.97,144.54 85.97,144.31 z M 214.03,144.31 C 214.03,144.54 214.07,144.77 214.16,144.98 C 214.25,145.19 214.38,145.38 214.55,145.55 C 214.71,145.71 214.91,145.84 215.12,145.92 C 215.33,146.01 215.57,146.06 215.8,146.06 C 216.03,146.06 216.26,146.01 216.47,145.92 C 216.69,145.84 216.88,145.71 217.05,145.55 C 217.21,145.38 217.34,145.19 217.43,144.98 C 217.52,144.77 217.57,144.54 217.57,144.31 C 217.57,144.08 217.52,143.85 217.43,143.64 C 217.34,143.43 217.21,143.24 217.05,143.07 C 216.88,142.91 216.69,142.78 216.47,142.69 C 216.26,142.61 216.03,142.56 215.8,142.56 C 215.57,142.56 215.33,142.61 215.12,142.69 C 214.91,142.78 214.71,142.91 214.55,143.07 C 214.38,143.24 214.25,143.43 214.16,143.64 C 214.07,143.85 214.03,144.08 214.03,144.31 z" />
		
		<!-- Name One -->
		<text dy="3" style="stroke:none;fill:#f00;font-family:z_swan;font-size:26px;text-anchor:start;">
			<textPath id="txtStart2" startOffset="2%" xlink:href="#txtpath"></textPath>
		</text>
		
		<text dy="3" style="stroke:none;fill:#f00;font-family:z_swan;font-size:26px;text-anchor:middle;">
			<textPath id="txtMid2" startOffset="50%" xlink:href="#txtpath"></textPath>
		</text>
		
		<text dy="3" style="stroke:none;fill:#f00;font-family:z_swan;font-size:26px;text-anchor:end;">
			<textPath id="txtEnd2" startOffset="98%" xlink:href="#txtpath"></textPath>
		</text>
			
		<!-- Prism Reference -->
		<cam mingh:cam="prism" mingh:style="plating:L;bead:NA;laser:7;workshop:10">M2</cam> 
	 </g>
</svg>
