<?xml version="1.0" encoding="UTF-8" standalone="no"?>

<svg
   xmlns:xlink="http://www.w3.org/1999/xlink"
   xmlns:svg="http://www.w3.org/2000/svg"
   xmlns="http://www.w3.org/2000/svg"
   xmlns:mingh="http://www.minghworld.com"
   width="300px"
   height="300px" >
	
	 <g>
		
		<!-- Paths -->
		<path style="stroke:#000;stroke-width:0.25px;" fill="none" id="shape"
		 d="M 144.19,121.81 C 143.56,121.84 142.94,122.0 142.38,122.34 C 140.87,123.25 140.15,125.06 140.63,126.75 C 141.1,128.44 142.65,129.61 144.41,129.59 C 143.42,130.41 142.73,131.35 142.19,132.5 C 141.85,133.23 141.59,133.95 141.47,134.75 C 141.23,136.42 141.84,137.9 142.5,139.31 C 143.27,140.97 143.71,141.99 144.31,143.72 C 144.84,145.23 145.26,146.74 145.44,148.34 C 145.8,151.57 145.04,155.35 143.22,158.09 C 142.98,158.45 142.74,158.76 142.47,159.09 C 142.4,159.18 142.35,159.26 142.28,159.34 C 142.21,159.42 142.14,159.5 142.19,159.63 C 142.27,159.82 142.33,160.02 142.41,160.22 C 142.7,161.02 142.92,161.84 143.03,162.69 C 143.27,164.43 143.1,166.03 142.66,167.72 C 142.22,169.36 141.56,170.86 140.75,172.34 C 140.35,173.08 139.92,173.79 139.47,174.5 C 139.24,174.85 139.02,175.22 138.78,175.56 C 138.51,175.96 138.34,176.31 138.41,176.81 C 138.52,177.77 139.44,178.39 140.38,178.16 C 141.07,177.98 142.04,177.45 142.63,177.06 C 144.03,176.13 145.15,174.88 146.03,173.47 C 146.98,171.96 147.64,170.4 148.03,168.66 C 148.06,168.55 148.07,168.42 148.09,168.31 C 148.1,168.26 148.11,168.21 148.13,168.16 C 148.13,168.14 148.12,168.14 148.13,168.13 C 148.13,168.13 148.15,168.12 148.16,168.13 C 148.17,168.16 148.17,168.21 148.19,168.25 C 148.3,168.52 148.45,168.78 148.59,169.03 C 148.81,169.4 149.06,169.72 149.38,170.0 C 149.51,170.11 149.63,170.22 149.78,170.31 C 149.84,170.35 149.92,170.35 149.97,170.31 C 150.04,170.26 150.08,170.16 150.13,170.09 C 150.35,169.73 150.49,169.37 150.63,168.97 C 150.88,168.2 151.13,167.05 151.25,166.25 C 151.38,165.4 151.45,164.54 151.47,163.69 C 151.47,163.49 151.47,163.32 151.47,163.13 C 151.47,163.08 151.47,163.02 151.47,162.97 C 151.47,162.95 151.47,162.93 151.47,162.91 C 151.48,162.92 151.49,162.92 151.5,162.94 C 151.57,163.06 151.64,163.19 151.72,163.31 C 151.95,163.69 152.21,164.01 152.56,164.28 C 152.7,164.39 152.88,164.47 153.03,164.56 C 153.11,164.61 153.17,164.65 153.25,164.69 C 153.32,164.72 153.38,164.78 153.47,164.75 C 153.65,164.7 153.93,163.93 153.97,163.81 C 154.47,162.37 154.54,160.11 154.5,158.63 C 154.49,158.21 154.48,157.79 154.44,157.38 C 154.42,157.17 154.4,156.96 154.38,156.75 C 154.36,156.65 154.36,156.54 154.34,156.44 C 154.34,156.39 154.32,156.33 154.31,156.28 C 154.32,156.29 154.34,156.28 154.34,156.28 C 154.37,156.31 154.38,156.34 154.41,156.38 C 154.94,157.14 155.54,157.7 156.44,158.03 C 156.66,158.11 156.7,157.94 156.78,157.78 C 156.87,157.59 156.94,157.39 157.0,157.19 C 157.13,156.74 157.17,156.28 157.22,155.81 C 157.3,154.96 157.32,154.11 157.22,153.25 C 157.17,152.84 157.12,152.46 157.03,152.06 C 156.99,151.86 156.93,151.67 156.88,151.47 C 156.85,151.37 156.81,151.29 156.78,151.19 C 156.77,151.14 156.77,151.08 156.75,151.03 C 156.76,151.04 156.77,151.05 156.78,151.06 C 156.81,151.09 156.85,151.1 156.88,151.13 C 157.2,151.47 157.52,151.79 157.94,152.03 C 158.09,152.12 158.25,152.19 158.41,152.25 C 158.52,152.3 158.68,152.4 158.78,152.25 C 158.84,152.17 158.89,151.84 158.91,151.75 C 158.93,151.55 158.93,151.33 158.94,151.13 C 158.95,150.68 158.92,150.23 158.88,149.78 C 158.79,148.93 158.68,148.11 158.47,147.28 C 158.42,147.08 158.37,146.86 158.31,146.66 C 158.3,146.61 158.27,146.58 158.25,146.53 C 158.25,146.52 158.25,146.48 158.25,146.47 C 158.28,146.5 158.32,146.54 158.34,146.56 C 158.44,146.66 158.52,146.75 158.63,146.84 C 158.94,147.13 159.27,147.34 159.66,147.53 C 159.77,147.59 159.96,147.73 160.06,147.56 C 160.11,147.49 160.18,147.11 160.19,147.03 C 160.25,146.61 160.26,146.17 160.25,145.75 C 160.23,144.88 160.11,144.04 159.94,143.19 C 159.86,142.78 159.74,142.37 159.63,141.97 C 159.57,141.77 159.53,141.57 159.47,141.38 C 159.45,141.33 159.42,141.3 159.41,141.25 C 159.4,141.23 159.38,141.18 159.38,141.16 C 159.39,141.17 159.4,141.15 159.41,141.16 C 159.54,141.26 159.67,141.35 159.81,141.44 C 160.23,141.71 160.66,141.9 161.16,142.0 C 161.38,142.04 161.47,142.06 161.53,141.81 C 161.58,141.62 161.61,141.41 161.63,141.22 C 161.67,140.5 161.52,139.39 161.41,138.69 C 161.13,137.04 160.59,135.54 159.84,134.06 C 159.09,132.57 158.18,131.27 156.88,130.19 C 155.62,129.15 154.11,128.42 152.53,128.03 C 151.73,127.83 150.95,127.73 150.13,127.72 C 149.62,127.71 149.1,127.74 148.59,127.81 C 148.27,127.86 147.97,127.89 147.66,127.97 C 147.62,127.98 147.57,127.99 147.53,128.0 C 147.53,128.0 147.53,127.97 147.53,127.97 C 147.56,127.92 147.59,127.89 147.63,127.84 C 147.69,127.75 147.73,127.66 147.78,127.56 C 148.62,126.02 148.33,124.09 147.06,122.88 C 146.27,122.11 145.23,121.76 144.19,121.81 z M 144.09,123.75 C 144.35,123.72 144.63,123.75 144.88,123.81 C 145.12,123.88 145.36,124.0 145.56,124.16 C 145.77,124.31 145.93,124.5 146.06,124.72 C 146.19,124.94 146.28,125.18 146.31,125.44 C 146.35,125.69 146.31,125.94 146.25,126.19 C 146.19,126.43 146.06,126.67 145.91,126.88 C 145.75,127.08 145.56,127.25 145.34,127.38 C 145.12,127.5 144.88,127.59 144.63,127.63 C 144.37,127.66 144.12,127.66 143.88,127.59 C 143.63,127.53 143.39,127.4 143.19,127.25 C 142.98,127.1 142.82,126.91 142.69,126.69 C 142.56,126.47 142.47,126.22 142.44,125.97 C 142.4,125.72 142.44,125.43 142.5,125.19 C 142.57,124.94 142.66,124.7 142.81,124.5 C 142.97,124.3 143.15,124.13 143.38,124.0 C 143.6,123.87 143.84,123.78 144.09,123.75 z M 150.19,129.56 C 150.58,129.58 150.95,129.63 151.34,129.69 C 151.54,129.72 151.74,129.77 151.94,129.81 C 152.18,129.86 152.42,129.9 152.66,129.97 C 152.89,130.04 153.09,130.13 153.31,130.22 C 153.52,130.3 153.73,130.37 153.94,130.47 C 154.18,130.59 154.42,130.74 154.66,130.88 C 154.88,131.0 155.11,131.13 155.31,131.28 C 155.51,131.43 155.69,131.58 155.88,131.75 C 156.09,131.94 156.31,132.16 156.5,132.38 C 156.6,132.48 156.69,132.58 156.78,132.69 C 156.87,132.8 156.97,132.92 157.06,133.03 C 157.24,133.26 157.41,133.5 157.56,133.75 C 157.73,134.02 157.88,134.31 158.03,134.59 C 158.22,134.95 158.42,135.29 158.59,135.66 C 158.68,135.84 158.77,136.03 158.84,136.22 C 158.99,136.58 159.08,136.94 159.19,137.31 C 159.24,137.5 159.29,137.69 159.34,137.88 C 159.38,138.01 159.4,138.14 159.44,138.28 C 159.5,138.55 159.59,138.82 159.63,139.09 C 159.42,138.95 159.22,138.79 159.03,138.63 C 158.83,138.45 158.62,138.29 158.44,138.09 C 158.11,137.75 157.81,137.35 157.53,136.97 C 157.27,136.61 157.03,136.27 156.78,135.91 C 156.54,135.55 156.31,135.19 156.06,134.84 C 155.85,134.55 155.64,134.25 155.41,133.97 C 154.73,133.12 153.95,132.36 153.13,131.66 C 152.21,130.87 151.23,130.16 150.19,129.56 z M 147.75,130.28 C 148.79,130.31 149.76,130.79 150.44,131.56 C 151.12,132.33 151.46,133.31 151.53,134.31 C 151.54,134.44 151.53,134.59 151.53,134.72 C 151.53,134.75 151.53,134.78 151.53,134.81 C 151.53,134.86 151.49,134.79 151.47,134.78 C 151.42,134.75 151.36,134.69 151.31,134.66 C 151.11,134.51 150.91,134.38 150.72,134.22 C 150.33,133.9 149.99,133.53 149.66,133.16 C 149.57,133.06 149.49,132.97 149.41,132.88 C 149.37,132.83 149.32,132.77 149.28,132.72 C 149.24,132.67 149.21,132.63 149.16,132.59 C 149.04,132.51 148.92,132.59 148.91,132.72 C 148.89,132.85 148.88,133.0 148.88,133.13 C 148.84,133.65 148.87,134.17 148.97,134.69 C 149.06,135.19 149.23,135.63 149.44,136.09 C 149.49,136.21 149.54,136.33 149.59,136.44 C 149.62,136.49 149.66,136.54 149.69,136.59 C 149.69,136.61 149.68,136.64 149.69,136.66 C 149.68,136.65 149.67,136.64 149.66,136.63 C 149.48,136.46 149.3,136.29 149.13,136.13 C 148.37,135.42 147.57,134.74 146.72,134.16 C 146.47,133.98 146.2,133.82 145.94,133.66 C 145.88,133.62 145.85,133.59 145.78,133.59 C 145.72,133.6 145.68,133.63 145.66,133.69 C 145.59,133.81 145.72,133.89 145.78,133.97 C 146.09,134.36 146.35,134.77 146.63,135.19 C 146.9,135.6 147.17,136.01 147.47,136.41 C 147.77,136.8 148.09,137.19 148.34,137.63 C 148.47,137.85 148.58,138.07 148.66,138.31 C 148.7,138.43 148.72,138.56 148.75,138.69 C 148.76,138.75 148.77,138.81 148.78,138.88 C 148.79,138.91 148.81,138.94 148.81,138.97 C 148.81,138.98 148.81,138.98 148.81,139.0 C 148.81,139.01 148.83,139.04 148.81,139.03 C 148.32,138.88 147.86,138.7 147.44,138.41 C 146.69,137.88 145.95,136.84 145.53,136.06 C 145.47,135.95 145.3,135.95 145.25,136.06 C 145.19,136.18 145.18,136.31 145.16,136.44 C 145.1,136.69 145.06,136.93 145.03,137.19 C 144.98,137.7 145.01,138.21 145.09,138.72 C 145.18,139.22 145.32,139.7 145.47,140.19 C 145.5,140.3 145.53,140.42 145.56,140.53 C 145.54,140.51 145.52,140.49 145.5,140.47 C 145.46,140.42 145.42,140.36 145.38,140.31 C 145.2,140.12 145.03,139.92 144.88,139.72 C 144.26,138.88 143.84,138.01 143.53,137.03 C 143.21,136.0 143.14,135.1 143.5,134.06 C 143.8,133.2 144.42,132.13 145.06,131.47 C 145.78,130.74 146.69,130.25 147.75,130.28 z M 152.88,133.84 C 152.88,133.86 152.9,133.89 152.91,133.91 C 152.92,133.94 152.95,133.96 152.97,134.0 C 153.09,134.31 153.19,134.65 153.28,134.97 C 153.46,135.62 153.55,136.27 153.63,136.94 C 153.7,137.6 153.74,138.27 153.72,138.94 C 153.71,139.27 153.69,139.57 153.66,139.91 C 153.65,139.95 153.63,139.99 153.63,140.03 C 153.62,140.05 153.63,140.07 153.63,140.09 C 153.62,140.12 153.6,140.11 153.59,140.09 C 153.55,140.02 153.51,139.95 153.47,139.88 C 153.39,139.73 153.3,139.58 153.22,139.44 C 152.88,138.86 152.49,138.32 152.09,137.78 C 151.89,137.51 151.72,137.24 151.53,136.97 C 151.44,136.83 151.34,136.67 151.25,136.53 C 151.21,136.46 151.17,136.42 151.13,136.34 C 151.1,136.31 151.08,136.26 151.06,136.22 C 151.05,136.19 150.98,136.1 151.03,136.13 C 151.34,136.3 151.63,136.46 151.97,136.56 C 152.13,136.61 152.3,136.62 152.47,136.66 C 152.55,136.67 152.63,136.7 152.72,136.69 C 152.8,136.67 152.83,136.64 152.84,136.56 C 152.96,135.9 152.98,135.24 152.94,134.56 C 152.93,134.39 152.93,134.23 152.91,134.06 C 152.9,133.99 152.89,133.92 152.88,133.84 z M 154.84,135.56 C 155.17,136.02 155.46,136.52 155.75,137.0 C 155.9,137.25 156.05,137.5 156.19,137.75 C 156.31,137.99 156.42,138.22 156.53,138.47 C 156.68,138.81 156.82,139.15 156.94,139.5 C 157.05,139.83 157.15,140.17 157.25,140.5 C 157.38,140.91 157.53,141.31 157.66,141.72 C 157.79,142.14 157.9,142.57 158.0,143.0 C 158.09,143.39 158.19,143.79 158.25,144.19 C 158.07,144.03 157.91,143.86 157.75,143.69 C 157.59,143.51 157.43,143.31 157.28,143.13 C 157.0,142.77 156.71,142.42 156.47,142.03 C 156.37,141.86 156.28,141.71 156.19,141.53 C 156.1,141.36 156.04,141.17 155.97,141.0 C 155.9,140.82 155.81,140.65 155.75,140.47 C 155.69,140.28 155.64,140.07 155.59,139.88 C 155.48,139.42 155.4,138.96 155.31,138.5 C 155.23,138.03 155.14,137.57 155.06,137.09 C 154.98,136.59 154.91,136.07 154.84,135.56 z M 150.22,139.25 C 150.44,139.54 150.64,139.86 150.81,140.19 C 151.41,141.29 151.68,142.56 151.63,143.81 C 151.61,144.17 151.57,144.54 151.5,144.88 C 150.68,143.3 149.5,141.99 148.34,140.66 C 148.25,140.53 148.04,140.33 148.0,140.25 C 148.53,140.49 149.04,140.73 149.56,140.97 C 149.76,141.02 150.1,141.32 150.22,141.03 C 150.29,140.43 150.28,139.85 150.22,139.25 z M 152.78,141.44 C 152.79,141.44 152.81,141.43 152.81,141.44 C 152.85,141.47 152.87,141.53 152.91,141.56 C 152.97,141.63 153.05,141.68 153.13,141.75 C 153.43,142.03 153.75,142.25 154.13,142.44 C 154.39,142.57 154.44,142.53 154.56,142.28 C 154.65,142.1 154.7,141.91 154.75,141.72 C 155.28,143.22 155.77,144.74 156.25,146.25 C 156.49,147.01 156.74,147.74 156.88,148.53 C 156.89,148.63 156.89,148.75 156.91,148.84 C 156.9,148.84 156.88,148.85 156.88,148.84 C 156.85,148.83 156.83,148.83 156.81,148.81 C 156.77,148.78 156.73,148.75 156.69,148.72 C 156.52,148.6 156.37,148.48 156.22,148.34 C 155.93,148.08 155.67,147.78 155.44,147.47 C 154.59,146.33 153.75,144.55 153.28,143.22 C 153.15,142.84 153.04,142.45 152.94,142.06 C 152.89,141.87 152.82,141.69 152.78,141.5 C 152.78,141.48 152.79,141.46 152.78,141.44 z M 147.47,141.81 C 147.49,141.84 147.54,141.85 147.56,141.88 C 147.79,142.14 148.03,142.41 148.25,142.69 C 149.1,143.78 149.88,145.09 150.13,146.5 C 150.19,146.85 150.19,147.2 150.19,147.56 C 150.19,147.74 150.17,147.92 150.16,148.09 C 150.15,148.14 150.16,148.17 150.16,148.22 C 150.15,148.21 150.1,148.2 150.09,148.19 C 150.04,148.12 149.99,148.07 149.94,148.0 C 149.52,147.42 149.15,146.8 148.78,146.19 C 147.9,144.74 147.42,143.99 146.28,142.72 C 146.62,142.91 146.95,143.08 147.28,143.28 C 147.35,143.32 147.38,143.39 147.47,143.38 C 147.54,143.36 147.58,143.32 147.59,143.25 C 147.62,143.16 147.63,142.78 147.63,142.69 C 147.61,142.51 147.59,142.31 147.56,142.13 C 147.55,142.04 147.52,141.96 147.5,141.88 C 147.49,141.85 147.47,141.83 147.47,141.81 z M 146.84,145.75 C 147.08,146.13 147.28,146.53 147.47,146.94 C 147.74,147.51 147.99,148.1 148.16,148.72 C 148.33,149.33 148.42,149.96 148.44,150.59 C 148.44,150.9 148.44,151.22 148.41,151.53 C 148.37,151.84 148.34,152.13 148.28,152.44 C 148.17,153.06 148.02,153.69 147.91,154.31 C 147.87,154.53 147.82,154.72 147.78,154.94 C 147.62,154.44 147.5,153.95 147.41,153.44 C 147.32,152.93 147.28,152.42 147.28,151.91 C 147.28,151.58 147.29,151.24 147.31,150.91 C 147.34,150.57 147.37,150.24 147.38,149.91 C 147.39,149.36 147.37,148.83 147.31,148.28 C 147.25,147.74 147.17,147.19 147.06,146.66 C 147.0,146.36 146.92,146.05 146.84,145.75 z M 152.97,146.25 C 152.98,146.27 152.99,146.32 153.0,146.34 C 153.1,146.54 153.19,146.71 153.28,146.91 C 153.46,147.3 153.65,147.72 153.81,148.13 C 154.37,149.52 155.09,151.59 155.31,153.09 C 155.38,153.52 155.42,153.97 155.44,154.41 C 155.44,154.46 155.44,154.51 155.44,154.56 C 155.44,154.59 155.44,154.63 155.44,154.66 C 155.44,154.68 155.47,154.75 155.44,154.72 C 155.37,154.64 155.29,154.55 155.22,154.47 C 155.08,154.3 154.94,154.11 154.81,153.94 C 154.28,153.24 153.84,152.53 153.44,151.75 C 152.62,150.19 152.06,148.57 151.63,146.88 C 151.95,147.16 152.28,147.42 152.63,147.69 C 152.67,147.72 152.7,147.75 152.75,147.78 C 152.8,147.81 152.82,147.81 152.88,147.78 C 152.98,147.73 152.99,147.59 153.0,147.5 C 153.02,147.27 153.01,147.04 153.0,146.81 C 153.0,146.7 153.01,146.61 153.0,146.5 C 153.0,146.44 152.97,146.4 152.97,146.34 C 152.97,146.32 152.95,146.21 152.97,146.25 z M 151.16,150.19 C 151.16,150.21 151.18,150.23 151.19,150.25 C 151.31,150.61 151.42,150.98 151.53,151.34 C 151.83,152.37 152.04,153.42 152.22,154.47 C 152.57,156.59 152.81,158.68 152.59,160.84 C 152.58,160.98 152.58,161.09 152.56,161.22 C 152.56,161.24 152.54,161.23 152.53,161.22 C 152.52,161.2 152.51,161.17 152.5,161.16 C 152.48,161.13 152.45,161.09 152.44,161.06 C 152.4,161.01 152.37,160.97 152.34,160.91 C 152.22,160.67 152.13,160.44 152.03,160.19 C 151.84,159.69 151.68,159.17 151.53,158.66 C 151.23,157.64 150.94,156.61 150.72,155.56 C 150.61,155.04 150.53,154.52 150.44,154.0 C 150.34,153.48 150.23,152.96 150.13,152.44 C 150.06,152.12 150.02,151.81 149.97,151.5 C 149.96,151.42 149.95,151.33 149.94,151.25 C 149.93,151.21 149.91,151.2 149.91,151.16 L 149.91,151.09 C 149.97,151.18 150.06,151.26 150.13,151.34 C 150.27,151.52 150.41,151.7 150.56,151.88 C 150.64,151.97 150.71,152.07 150.78,152.16 C 150.89,152.28 151.1,152.24 151.09,152.06 C 151.08,151.7 151.08,151.33 151.09,150.97 C 151.1,150.79 151.11,150.62 151.13,150.44 C 151.13,150.35 151.15,150.27 151.16,150.19 z M 149.13,155.41 C 149.13,155.38 149.15,155.42 149.16,155.44 C 149.16,155.45 149.15,155.48 149.16,155.5 C 149.22,155.77 149.26,156.04 149.31,156.31 C 149.52,157.44 149.62,158.57 149.66,159.72 C 149.69,160.86 149.65,161.98 149.59,163.13 C 149.57,163.69 149.54,164.27 149.5,164.84 C 149.48,165.13 149.46,165.4 149.44,165.69 C 149.43,165.83 149.42,165.98 149.41,166.13 C 149.4,166.2 149.38,166.27 149.38,166.34 C 149.37,166.38 149.38,166.4 149.38,166.44 C 149.37,166.46 149.38,166.48 149.38,166.5 C 149.37,166.51 149.35,166.51 149.34,166.5 C 148.95,165.69 148.42,164.14 148.16,163.28 C 147.81,162.19 147.55,161.09 147.31,159.97 C 147.08,158.85 146.86,157.72 146.69,156.59 C 146.66,156.44 146.65,156.28 146.63,156.13 C 146.62,156.09 146.63,156.07 146.63,156.03 C 146.64,156.05 146.68,156.08 146.69,156.09 C 146.75,156.18 146.81,156.26 146.88,156.34 C 147.09,156.62 147.31,156.9 147.53,157.16 C 147.69,157.34 147.85,157.52 148.03,157.69 C 148.1,157.75 148.18,157.81 148.25,157.88 C 148.34,157.95 148.46,157.93 148.5,157.81 C 148.69,157.27 148.87,156.72 149.0,156.16 C 149.03,156.02 149.06,155.86 149.09,155.72 C 149.11,155.65 149.11,155.57 149.13,155.5 C 149.13,155.46 149.12,155.44 149.13,155.41 z M 145.5,157.91 C 145.58,158.39 145.63,158.86 145.72,159.34 C 145.8,159.8 145.89,160.26 145.97,160.72 C 146.14,161.65 146.3,162.59 146.41,163.53 C 146.46,164.01 146.51,164.49 146.53,164.97 C 146.55,165.45 146.53,165.95 146.5,166.44 C 146.48,166.84 146.44,167.23 146.38,167.63 C 146.34,167.85 146.3,168.06 146.25,168.28 C 146.05,169.18 145.74,170.07 145.34,170.91 C 145.05,171.53 144.7,172.12 144.31,172.69 C 144.14,172.95 143.98,173.19 143.78,173.44 C 143.62,173.63 143.45,173.82 143.28,174.0 C 143.11,174.18 142.94,174.37 142.75,174.53 C 142.6,174.66 142.44,174.79 142.28,174.91 C 142.0,175.12 141.71,175.3 141.41,175.47 C 141.62,175.09 141.83,174.7 142.03,174.31 C 142.17,174.04 142.33,173.78 142.47,173.5 C 142.69,173.06 142.9,172.6 143.09,172.16 C 143.49,171.25 143.86,170.35 144.16,169.41 C 144.46,168.45 144.67,167.46 144.81,166.47 C 144.89,165.91 144.95,165.34 144.97,164.78 C 144.98,164.47 144.98,164.16 144.97,163.84 C 144.96,163.47 144.95,163.09 144.91,162.72 C 144.86,162.34 144.79,161.96 144.72,161.59 C 144.67,161.35 144.62,161.11 144.56,160.88 C 144.47,160.53 144.37,160.18 144.25,159.84 C 144.48,159.53 145.06,158.74 145.5,157.91 z"
		 />
		
		<!-- Prism Reference -->
		<cam mingh:cam="prism" mingh:style="plating:L;bead:NA;laser:5;workshop:7">M10</cam> 
	 </g>

</svg>
