<?xml version="1.0" encoding="UTF-8" standalone="no"?>

<svg
   xmlns:xlink="http://www.w3.org/1999/xlink"
   xmlns:svg="http://www.w3.org/2000/svg"
   xmlns="http://www.w3.org/2000/svg"
   xmlns:mingh="http://www.minghworld.com"
   width="300px"
   height="300px" >
	
	 <g>
		
		<!-- Paths -->
		<path style="fill:none;stroke:#000;stroke-width:0.25px;"
		 d="M 149.66,128.47 C 148.28,128.45 146.98,129.14 146.25,130.34 C 145.42,131.71 145.48,133.44 146.44,134.72 C 146.76,135.15 147.16,135.48 147.63,135.75 C 147.73,135.81 147.83,135.89 147.94,135.94 C 147.99,135.96 148.14,135.97 148.16,136.06 C 148.17,136.17 148.11,136.18 148.03,136.19 C 147.94,136.2 147.84,136.21 147.75,136.22 C 147.04,136.29 146.35,136.4 145.66,136.56 C 144.17,136.9 142.79,137.39 141.44,138.09 C 138.64,139.55 136.27,141.74 134.59,144.41 C 131.19,149.81 130.96,156.63 134.0,162.25 C 137.04,167.88 142.88,171.41 149.28,171.53 C 155.68,171.65 161.6,168.33 164.84,162.81 C 165.28,162.07 165.13,161.14 164.47,160.59 C 163.81,160.05 162.86,160.06 162.22,160.63 C 162.1,160.73 162.01,160.85 161.91,160.97 C 161.89,160.99 161.86,161.01 161.84,161.03 C 161.83,161.04 161.82,161.05 161.81,161.06 C 161.81,161.07 161.78,161.06 161.78,161.06 C 161.78,160.96 161.75,160.85 161.75,160.75 C 161.74,160.34 161.73,159.94 161.72,159.53 C 161.69,158.71 161.65,157.91 161.63,157.09 C 161.62,156.87 161.6,156.63 161.59,156.41 C 161.59,156.23 161.56,156.08 161.63,155.91 C 161.68,155.75 161.81,155.69 161.94,155.63 C 162.16,155.51 162.39,155.41 162.63,155.31 C 163.37,154.98 164.13,154.64 164.88,154.31 C 165.62,153.98 166.38,153.67 167.13,153.34 C 167.34,153.25 167.57,153.13 167.78,153.03 C 167.88,152.98 168.02,152.94 168.09,152.84 C 168.15,152.77 168.06,152.72 168.0,152.69 C 167.83,152.6 167.68,152.55 167.5,152.5 C 165.86,152.02 164.21,151.56 162.56,151.09 C 162.34,151.03 161.58,150.86 161.38,150.72 C 161.23,150.62 161.24,150.49 161.22,150.34 C 161.18,150.09 161.15,149.82 161.13,149.56 C 161.04,148.72 160.96,147.87 160.88,147.03 C 160.83,146.61 160.79,146.2 160.75,145.78 C 160.74,145.73 160.72,145.68 160.72,145.63 C 160.72,145.61 160.72,145.61 160.72,145.59 C 160.72,145.6 160.74,145.59 160.75,145.59 C 160.8,145.63 160.86,145.68 160.91,145.72 C 161.0,145.8 161.09,145.88 161.19,145.97 C 161.56,146.32 161.9,146.69 162.22,147.09 C 162.32,147.23 162.43,147.36 162.56,147.47 C 162.73,147.61 162.92,147.71 163.13,147.78 C 163.54,147.92 163.98,147.9 164.38,147.72 C 165.18,147.35 165.59,146.42 165.28,145.59 C 165.11,145.14 164.31,143.98 164.03,143.59 C 163.57,142.94 163.08,142.31 162.53,141.72 C 161.42,140.53 160.2,139.53 158.81,138.69 C 157.47,137.87 156.07,137.25 154.56,136.81 C 153.85,136.6 153.14,136.46 152.41,136.34 C 152.05,136.29 151.7,136.22 151.34,136.19 C 151.32,136.19 151.09,136.17 151.06,136.16 C 151.0,136.13 151.0,136.04 151.06,136.0 C 151.11,135.97 151.17,135.96 151.22,135.94 C 151.28,135.91 151.32,135.87 151.38,135.84 C 151.49,135.79 151.61,135.73 151.72,135.66 C 153.08,134.78 153.76,133.18 153.44,131.59 C 153.11,130.01 151.84,128.77 150.25,128.5 C 150.05,128.47 149.85,128.47 149.66,128.47 z M 149.59,130.44 C 149.85,130.44 150.11,130.46 150.34,130.56 C 150.58,130.66 150.79,130.82 150.97,131.0 C 151.15,131.18 151.31,131.39 151.41,131.63 C 151.5,131.86 151.53,132.12 151.53,132.38 C 151.53,132.63 151.5,132.89 151.41,133.13 C 151.31,133.36 151.15,133.57 150.97,133.75 C 150.79,133.93 150.58,134.09 150.34,134.19 C 150.11,134.29 149.85,134.31 149.59,134.31 C 149.34,134.31 149.08,134.29 148.84,134.19 C 148.61,134.09 148.4,133.93 148.22,133.75 C 148.04,133.57 147.88,133.36 147.78,133.13 C 147.68,132.89 147.66,132.63 147.66,132.38 C 147.66,132.12 147.68,131.86 147.78,131.63 C 147.88,131.39 148.04,131.18 148.22,131.0 C 148.4,130.82 148.61,130.66 148.84,130.56 C 149.08,130.46 149.34,130.44 149.59,130.44 z M 153.03,143.09 C 155.29,142.92 157.56,143.48 159.53,144.72 C 159.02,145.48 158.51,146.24 158.0,147.0 C 157.74,147.38 157.48,147.74 157.22,148.13 C 157.12,148.28 156.57,149.15 156.44,149.28 C 156.32,149.4 156.19,149.43 156.03,149.41 C 155.75,149.37 155.49,149.31 155.22,149.25 C 154.77,149.15 154.32,149.03 153.88,148.94 C 152.98,148.74 152.05,148.57 151.16,148.38 C 150.65,148.27 150.16,148.15 149.66,148.06 C 149.57,148.05 149.49,148.03 149.41,148.03 C 149.36,148.03 149.32,148.02 149.28,148.06 C 149.22,148.14 149.37,148.33 149.41,148.38 C 149.7,148.8 150.03,149.19 150.34,149.59 C 150.64,149.97 150.92,150.34 151.22,150.72 C 151.81,151.48 152.41,152.24 153.0,153.0 C 153.16,153.2 153.34,153.37 153.47,153.59 C 153.56,153.75 153.54,153.88 153.47,154.03 C 153.35,154.29 153.21,154.53 153.06,154.78 C 152.94,154.99 152.81,155.2 152.69,155.41 C 152.21,156.23 151.73,157.05 151.25,157.88 C 151.01,158.29 150.77,158.71 150.53,159.13 C 150.4,159.35 150.24,159.57 150.13,159.81 C 150.1,159.87 150.03,160.03 150.13,160.06 C 150.18,160.08 150.23,160.07 150.28,160.06 C 150.38,160.04 150.47,160.0 150.56,159.97 C 150.82,159.88 151.09,159.78 151.34,159.69 C 151.79,159.52 152.24,159.35 152.69,159.19 C 153.58,158.86 154.48,158.55 155.38,158.22 C 155.65,158.12 155.91,158.01 156.19,157.91 C 156.33,157.86 156.48,157.82 156.63,157.78 C 156.71,157.76 156.78,157.76 156.88,157.78 C 156.98,157.81 157.05,157.87 157.13,157.94 C 157.26,158.07 157.37,158.2 157.5,158.34 C 157.69,158.55 157.88,158.76 158.06,158.97 C 158.81,159.8 159.54,160.63 160.28,161.47 C 160.37,161.57 160.47,161.68 160.56,161.78 C 160.61,161.83 160.67,161.92 160.72,161.97 C 160.74,161.99 160.76,162.01 160.78,162.03 C 160.79,162.04 160.76,162.06 160.75,162.06 C 160.62,162.17 160.48,162.3 160.34,162.41 C 160.07,162.61 159.79,162.79 159.5,162.97 C 158.93,163.32 158.34,163.6 157.72,163.84 C 154.24,165.19 150.32,164.66 147.34,162.41 C 144.36,160.15 142.78,156.53 143.13,152.81 C 143.47,149.09 145.71,145.84 149.06,144.19 C 150.32,143.57 151.68,143.2 153.03,143.09 z"
		 />
		<path style="fill:#f00;stroke:none;"
		 d="M 164.84,153.18 C 163.81,153.63 162.78,154.09 161.74,154.54 C 161.46,154.67 161.17,154.8 160.89,154.92 C 160.82,154.95 160.75,154.98 160.68,155.02 C 160.64,155.03 160.62,155.07 160.58,155.04 C 160.55,155.03 160.53,155.01 160.51,155.0 C 160.49,154.98 160.44,154.98 160.46,154.95 C 160.48,154.92 160.49,154.9 160.5,154.87 C 160.53,154.82 160.56,154.77 160.58,154.72 C 160.84,154.18 160.91,153.67 160.83,153.07 C 160.78,152.78 160.7,152.51 160.58,152.24 C 160.52,152.11 160.45,151.99 160.37,151.88 C 160.33,151.82 160.29,151.76 160.25,151.71 C 160.24,151.7 160.22,151.69 160.24,151.67 C 160.25,151.66 160.26,151.65 160.28,151.64 C 160.3,151.62 160.33,151.6 160.35,151.57 C 160.37,151.56 160.39,151.58 160.4,151.59 C 160.42,151.59 160.44,151.6 160.45,151.6 C 160.49,151.61 160.52,151.62 160.56,151.63 C 160.62,151.65 160.69,151.67 160.76,151.69 C 160.9,151.73 161.03,151.76 161.17,151.8 C 161.44,151.88 161.71,151.96 161.98,152.04 C 162.52,152.19 163.07,152.35 163.61,152.5 C 163.91,152.59 164.21,152.67 164.51,152.76 C 164.58,152.78 164.85,152.84 164.91,152.9 C 164.98,152.99 164.95,153.13 164.84,153.18 z M 152.52,157.8 C 153.09,156.82 153.66,155.85 154.22,154.87 C 154.38,154.6 154.54,154.33 154.7,154.06 C 154.73,154.0 154.77,153.93 154.81,153.86 C 154.83,153.83 154.83,153.79 154.88,153.78 C 154.9,153.78 154.93,153.78 154.96,153.78 C 154.98,153.78 155.02,153.75 155.02,153.79 C 155.03,153.82 155.03,153.85 155.03,153.88 C 155.04,153.93 155.05,153.99 155.06,154.04 C 155.18,154.63 155.42,155.09 155.84,155.52 C 156.04,155.73 156.27,155.9 156.52,156.05 C 156.65,156.11 156.77,156.17 156.9,156.22 C 156.97,156.25 157.03,156.27 157.1,156.29 C 157.11,156.29 157.14,156.28 157.13,156.31 C 157.13,156.33 157.12,156.34 157.12,156.36 C 157.11,156.39 157.1,156.42 157.1,156.46 C 157.09,156.48 157.07,156.47 157.05,156.48 C 157.03,156.48 157.02,156.49 157.0,156.49 C 156.97,156.51 156.93,156.52 156.9,156.53 C 156.83,156.55 156.77,156.58 156.7,156.6 C 156.57,156.65 156.44,156.7 156.3,156.75 C 156.04,156.84 155.77,156.94 155.51,157.04 C 154.98,157.23 154.45,157.43 153.92,157.62 C 153.62,157.73 153.33,157.83 153.04,157.94 C 152.97,157.96 152.72,158.08 152.63,158.06 C 152.52,158.03 152.46,157.9 152.52,157.8 z M 159.78,146.82 C 159.89,147.94 160.0,149.06 160.12,150.19 C 160.15,150.5 160.18,150.81 160.21,151.12 C 160.22,151.19 160.23,151.27 160.23,151.35 C 160.24,151.38 160.27,151.42 160.23,151.45 C 160.21,151.47 160.18,151.48 160.16,151.5 C 160.15,151.52 160.13,151.56 160.1,151.53 C 160.08,151.51 160.06,151.49 160.05,151.47 C 160.01,151.43 159.97,151.39 159.93,151.35 C 159.49,150.94 159.02,150.71 158.43,150.61 C 158.14,150.55 157.86,150.55 157.56,150.59 C 157.43,150.6 157.29,150.63 157.15,150.67 C 157.09,150.69 157.02,150.71 156.96,150.73 C 156.95,150.73 156.93,150.75 156.92,150.73 C 156.91,150.72 156.91,150.7 156.9,150.68 C 156.89,150.65 156.87,150.62 156.86,150.59 C 156.85,150.57 156.88,150.56 156.89,150.55 C 156.9,150.53 156.91,150.52 156.92,150.5 C 156.94,150.47 156.96,150.45 156.98,150.42 C 157.02,150.36 157.06,150.3 157.09,150.24 C 157.17,150.12 157.25,150.01 157.33,149.89 C 157.49,149.65 157.65,149.42 157.8,149.19 C 158.12,148.72 158.43,148.25 158.75,147.78 C 158.92,147.52 159.1,147.26 159.27,147.0 C 159.31,146.95 159.45,146.71 159.53,146.67 C 159.64,146.63 159.76,146.7 159.78,146.82 z M 152.16,149.67 C 153.26,149.91 154.37,150.15 155.47,150.39 C 155.77,150.45 156.08,150.52 156.38,150.59 C 156.46,150.6 156.53,150.62 156.61,150.64 C 156.64,150.64 156.69,150.63 156.7,150.67 C 156.71,150.7 156.72,150.72 156.74,150.75 C 156.74,150.77 156.78,150.8 156.74,150.82 C 156.71,150.83 156.69,150.84 156.66,150.85 C 156.61,150.88 156.56,150.9 156.51,150.93 C 155.99,151.22 155.63,151.59 155.35,152.12 C 155.21,152.38 155.11,152.65 155.06,152.94 C 155.03,153.08 155.02,153.21 155.01,153.35 C 155.01,153.42 155.01,153.49 155.01,153.56 C 155.01,153.57 155.02,153.6 155.0,153.6 C 154.98,153.6 154.96,153.6 154.95,153.6 C 154.91,153.6 154.88,153.61 154.85,153.61 C 154.82,153.61 154.83,153.58 154.81,153.57 C 154.8,153.56 154.79,153.54 154.78,153.53 C 154.76,153.5 154.74,153.47 154.72,153.45 C 154.67,153.39 154.63,153.33 154.59,153.28 C 154.5,153.17 154.41,153.06 154.33,152.94 C 154.15,152.72 153.98,152.5 153.8,152.28 C 153.45,151.83 153.11,151.39 152.76,150.94 C 152.57,150.7 152.37,150.45 152.18,150.21 C 152.14,150.15 151.95,149.94 151.95,149.86 C 151.93,149.74 152.04,149.64 152.16,149.67 z M 157.31,156.34 C 158.44,156.59 159.62,156.14 160.3,155.2 C 160.31,155.18 160.33,155.16 160.34,155.14 C 160.35,155.13 160.35,155.11 160.37,155.12 C 160.38,155.13 160.39,155.13 160.4,155.14 C 160.43,155.15 160.45,155.17 160.47,155.18 C 160.51,155.2 160.5,155.23 160.5,155.26 C 160.51,155.41 160.51,155.56 160.52,155.72 C 160.53,156.02 160.54,156.32 160.55,156.62 C 160.57,157.18 160.59,157.75 160.61,158.31 C 160.62,158.6 160.63,158.9 160.64,159.19 C 160.65,159.33 160.65,159.48 160.66,159.63 C 160.66,159.72 160.71,159.9 160.6,159.98 C 160.56,160.02 160.51,160.03 160.45,160.02 C 160.39,160.01 160.35,159.96 160.31,159.92 C 160.21,159.8 160.11,159.69 160.01,159.58 C 159.81,159.35 159.61,159.13 159.41,158.9 C 159.04,158.48 158.66,158.06 158.28,157.64 C 158.09,157.42 157.89,157.2 157.7,156.98 C 157.6,156.87 157.5,156.77 157.4,156.66 C 157.38,156.63 157.35,156.6 157.33,156.57 C 157.32,156.57 157.27,156.51 157.27,156.49 C 157.28,156.44 157.29,156.39 157.31,156.34 z M 137.05,151.59 C 137.33,151.94 137.6,152.29 137.88,152.65 C 137.96,152.75 137.98,152.78 138.02,152.79 C 138.05,152.79 138.1,152.78 138.2,152.75 C 138.63,152.63 139.06,152.5 139.49,152.38 C 139.64,152.34 139.71,152.32 139.72,152.34 C 139.74,152.36 139.7,152.42 139.61,152.55 C 139.36,152.92 139.11,153.29 138.86,153.66 C 138.78,153.77 138.76,153.8 138.77,153.83 C 138.77,153.87 138.8,153.91 138.86,154.0 C 139.11,154.37 139.36,154.74 139.61,155.11 C 139.7,155.23 139.74,155.3 139.72,155.32 C 139.71,155.34 139.63,155.32 139.49,155.28 C 139.06,155.15 138.63,155.03 138.2,154.9 C 138.07,154.87 138.04,154.86 138.0,154.87 C 137.97,154.89 137.94,154.93 137.88,155.01 C 137.6,155.36 137.33,155.71 137.05,156.07 C 136.96,156.19 136.91,156.25 136.89,156.24 C 136.86,156.23 136.86,156.15 136.86,156.0 C 136.84,155.56 136.83,155.11 136.81,154.66 C 136.81,154.53 136.81,154.49 136.78,154.47 C 136.76,154.44 136.71,154.42 136.61,154.39 C 136.19,154.23 135.77,154.08 135.35,153.93 C 135.21,153.88 135.14,153.85 135.14,153.83 C 135.14,153.8 135.21,153.77 135.35,153.72 C 135.77,153.57 136.19,153.42 136.61,153.27 C 136.74,153.22 136.77,153.21 136.79,153.18 C 136.81,153.15 136.81,153.09 136.81,152.99 C 136.83,152.55 136.84,152.1 136.86,151.65 C 136.86,151.5 136.86,151.42 136.89,151.41 C 136.91,151.41 136.96,151.47 137.05,151.59 z M 139.51,162.01 C 139.87,162.08 140.23,162.14 140.59,162.21 C 140.7,162.23 140.73,162.24 140.75,162.22 C 140.78,162.21 140.8,162.17 140.85,162.1 C 141.04,161.79 141.24,161.49 141.44,161.18 C 141.51,161.07 141.54,161.02 141.56,161.02 C 141.58,161.03 141.59,161.09 141.6,161.22 C 141.65,161.58 141.7,161.94 141.74,162.3 C 141.75,162.41 141.76,162.44 141.78,162.46 C 141.8,162.48 141.84,162.49 141.93,162.51 C 142.28,162.61 142.63,162.7 142.99,162.79 C 143.11,162.82 143.17,162.84 143.17,162.86 C 143.17,162.88 143.12,162.91 143.0,162.96 C 142.67,163.12 142.34,163.27 142.01,163.43 C 141.91,163.47 141.88,163.49 141.87,163.51 C 141.86,163.54 141.86,163.58 141.87,163.67 C 141.89,164.03 141.91,164.4 141.93,164.76 C 141.94,164.89 141.94,164.95 141.92,164.96 C 141.9,164.97 141.86,164.92 141.78,164.83 C 141.53,164.56 141.28,164.3 141.03,164.03 C 140.95,163.95 140.93,163.93 140.9,163.92 C 140.87,163.92 140.83,163.94 140.75,163.97 C 140.41,164.1 140.07,164.23 139.73,164.37 C 139.62,164.41 139.56,164.44 139.54,164.42 C 139.53,164.4 139.56,164.35 139.62,164.24 C 139.8,163.92 139.97,163.6 140.15,163.28 C 140.2,163.18 140.22,163.16 140.21,163.13 C 140.2,163.1 140.18,163.07 140.12,163.0 C 139.89,162.72 139.66,162.44 139.43,162.15 C 139.35,162.06 139.31,162.01 139.32,161.99 C 139.33,161.97 139.39,161.98 139.51,162.01 z M 137.34,157.14 C 137.68,157.34 138.02,157.55 138.35,157.75 C 138.45,157.81 138.48,157.83 138.51,157.82 C 138.55,157.82 138.58,157.79 138.66,157.74 C 138.97,157.5 139.29,157.26 139.6,157.02 C 139.71,156.94 139.76,156.9 139.78,156.92 C 139.8,156.93 139.79,156.99 139.75,157.13 C 139.66,157.51 139.57,157.89 139.48,158.28 C 139.45,158.39 139.45,158.42 139.46,158.45 C 139.48,158.48 139.51,158.51 139.59,158.56 C 139.91,158.79 140.24,159.01 140.56,159.24 C 140.67,159.32 140.72,159.36 140.72,159.38 C 140.71,159.4 140.64,159.41 140.51,159.42 C 140.12,159.45 139.72,159.48 139.33,159.51 C 139.21,159.52 139.18,159.52 139.16,159.55 C 139.14,159.57 139.12,159.61 139.1,159.7 C 138.98,160.08 138.86,160.46 138.75,160.83 C 138.71,160.96 138.69,161.03 138.67,161.03 C 138.64,161.03 138.62,160.97 138.56,160.84 C 138.41,160.48 138.26,160.11 138.11,159.75 C 138.06,159.64 138.05,159.61 138.02,159.6 C 137.99,159.58 137.95,159.58 137.86,159.59 C 137.46,159.59 137.07,159.6 136.67,159.61 C 136.54,159.61 136.47,159.61 136.46,159.59 C 136.45,159.57 136.5,159.52 136.61,159.43 C 136.91,159.18 137.21,158.92 137.5,158.66 C 137.59,158.59 137.62,158.56 137.62,158.53 C 137.63,158.5 137.61,158.46 137.58,158.37 C 137.46,158.0 137.33,157.62 137.2,157.25 C 137.16,157.12 137.13,157.06 137.15,157.04 C 137.17,157.03 137.23,157.07 137.34,157.14 z M 137.34,150.52 C 137.23,150.59 137.17,150.62 137.15,150.61 C 137.13,150.59 137.16,150.53 137.2,150.4 C 137.33,150.03 137.46,149.66 137.58,149.28 C 137.61,149.2 137.63,149.15 137.62,149.12 C 137.62,149.09 137.59,149.07 137.5,148.99 C 137.21,148.74 136.91,148.48 136.61,148.22 C 136.5,148.13 136.45,148.09 136.46,148.07 C 136.47,148.05 136.54,148.05 136.67,148.05 C 137.07,148.06 137.46,148.06 137.86,148.07 C 137.95,148.07 137.99,148.07 138.02,148.06 C 138.05,148.04 138.06,148.01 138.11,147.9 C 138.26,147.54 138.41,147.18 138.56,146.81 C 138.62,146.69 138.64,146.62 138.67,146.63 C 138.69,146.63 138.71,146.69 138.75,146.82 C 138.86,147.2 138.98,147.57 139.1,147.95 C 139.12,148.04 139.14,148.08 139.16,148.11 C 139.18,148.13 139.21,148.13 139.33,148.14 C 139.72,148.17 140.12,148.21 140.51,148.24 C 140.64,148.25 140.71,148.25 140.72,148.28 C 140.72,148.3 140.67,148.34 140.56,148.42 C 140.24,148.64 139.91,148.87 139.59,149.09 C 139.51,149.15 139.48,149.17 139.46,149.2 C 139.45,149.23 139.46,149.26 139.48,149.38 C 139.57,149.76 139.66,150.14 139.75,150.53 C 139.79,150.66 139.8,150.73 139.78,150.74 C 139.76,150.75 139.71,150.71 139.6,150.63 C 139.29,150.39 138.97,150.15 138.66,149.92 C 138.58,149.86 138.55,149.84 138.51,149.83 C 138.48,149.82 138.45,149.84 138.35,149.9 C 138.02,150.11 137.68,150.31 137.34,150.52 z M 139.51,145.65 C 139.39,145.67 139.33,145.68 139.32,145.66 C 139.31,145.65 139.35,145.6 139.43,145.5 C 139.66,145.22 139.89,144.94 140.12,144.65 C 140.18,144.59 140.2,144.56 140.21,144.53 C 140.22,144.5 140.2,144.47 140.15,144.38 C 139.97,144.06 139.8,143.74 139.62,143.42 C 139.56,143.3 139.53,143.25 139.54,143.23 C 139.56,143.22 139.62,143.24 139.73,143.29 C 140.07,143.42 140.41,143.55 140.75,143.69 C 140.83,143.72 140.87,143.73 140.9,143.73 C 140.93,143.73 140.95,143.71 141.03,143.63 C 141.28,143.36 141.53,143.09 141.78,142.83 C 141.86,142.73 141.9,142.69 141.92,142.7 C 141.94,142.7 141.94,142.77 141.93,142.89 C 141.91,143.26 141.89,143.62 141.87,143.99 C 141.86,144.07 141.86,144.11 141.87,144.14 C 141.88,144.17 141.91,144.18 142.01,144.23 C 142.34,144.38 142.67,144.54 143.0,144.69 C 143.12,144.75 143.17,144.77 143.17,144.8 C 143.17,144.82 143.11,144.83 142.99,144.86 C 142.63,144.96 142.28,145.05 141.92,145.14 C 141.84,145.16 141.8,145.17 141.78,145.19 C 141.76,145.21 141.75,145.24 141.74,145.35 C 141.69,145.71 141.65,146.08 141.6,146.44 C 141.59,146.56 141.58,146.62 141.56,146.63 C 141.54,146.63 141.51,146.58 141.44,146.48 C 141.24,146.17 141.04,145.86 140.85,145.55 C 140.8,145.48 140.78,145.44 140.75,145.43 C 140.73,145.41 140.7,145.42 140.59,145.44 C 140.23,145.51 139.87,145.58 139.51,145.65 z M 143.32,142.14 C 143.23,142.13 143.19,142.12 143.19,142.11 C 143.19,142.09 143.22,142.07 143.29,142.03 C 143.5,141.9 143.71,141.76 143.92,141.63 C 143.97,141.6 143.99,141.59 144.0,141.57 C 144.01,141.55 144.01,141.53 143.99,141.46 C 143.95,141.22 143.9,140.98 143.86,140.73 C 143.84,140.65 143.84,140.61 143.85,140.6 C 143.86,140.6 143.89,140.62 143.96,140.68 C 144.15,140.83 144.34,140.99 144.52,141.15 C 144.57,141.19 144.59,141.2 144.61,141.21 C 144.63,141.21 144.65,141.2 144.71,141.17 C 144.93,141.05 145.14,140.93 145.36,140.82 C 145.43,140.77 145.47,140.75 145.48,140.76 C 145.49,140.77 145.48,140.81 145.45,140.89 C 145.35,141.12 145.26,141.35 145.17,141.58 C 145.15,141.63 145.14,141.66 145.14,141.68 C 145.14,141.7 145.16,141.71 145.21,141.76 C 145.39,141.93 145.57,142.1 145.75,142.27 C 145.81,142.33 145.84,142.36 145.83,142.37 C 145.83,142.38 145.79,142.38 145.7,142.37 C 145.46,142.36 145.21,142.34 144.97,142.32 C 144.91,142.32 144.88,142.32 144.86,142.33 C 144.84,142.34 144.84,142.35 144.8,142.42 C 144.7,142.64 144.59,142.86 144.49,143.09 C 144.45,143.16 144.43,143.2 144.42,143.2 C 144.4,143.2 144.39,143.16 144.37,143.08 C 144.31,142.84 144.25,142.6 144.19,142.36 C 144.18,142.3 144.17,142.28 144.16,142.26 C 144.14,142.25 144.12,142.24 144.05,142.23 C 143.81,142.2 143.56,142.17 143.32,142.14 z M 143.41,165.53 C 143.63,165.5 143.86,165.47 144.08,165.44 C 144.15,165.44 144.17,165.43 144.18,165.42 C 144.2,165.41 144.2,165.38 144.22,165.33 C 144.27,165.11 144.33,164.89 144.38,164.67 C 144.4,164.59 144.41,164.55 144.42,164.55 C 144.44,164.55 144.45,164.59 144.49,164.66 C 144.59,164.86 144.68,165.07 144.78,165.27 C 144.81,165.33 144.82,165.35 144.84,165.36 C 144.85,165.37 144.88,165.37 144.93,165.36 C 145.16,165.35 145.39,165.33 145.61,165.32 C 145.69,165.31 145.73,165.31 145.73,165.32 C 145.74,165.33 145.71,165.36 145.65,165.41 C 145.49,165.57 145.33,165.73 145.16,165.88 C 145.11,165.93 145.1,165.94 145.1,165.96 C 145.09,165.98 145.1,166.0 145.12,166.05 C 145.21,166.26 145.29,166.47 145.38,166.69 C 145.4,166.76 145.42,166.79 145.41,166.8 C 145.4,166.81 145.37,166.79 145.3,166.76 C 145.1,166.65 144.9,166.54 144.7,166.43 C 144.64,166.4 144.62,166.39 144.6,166.39 C 144.58,166.4 144.56,166.41 144.52,166.45 C 144.35,166.59 144.17,166.74 144.0,166.88 C 143.94,166.93 143.91,166.96 143.9,166.95 C 143.89,166.95 143.89,166.91 143.91,166.83 C 143.95,166.61 143.99,166.38 144.03,166.16 C 144.04,166.09 144.05,166.07 144.04,166.06 C 144.03,166.04 144.01,166.03 143.96,166.0 C 143.77,165.88 143.58,165.76 143.39,165.64 C 143.32,165.59 143.29,165.57 143.29,165.56 C 143.29,165.55 143.33,165.54 143.41,165.53 z M 149.41,137.84 C 145.29,137.89 141.26,139.51 138.25,142.53 C 133.88,146.93 132.44,153.45 134.56,159.28 C 136.68,165.11 141.98,169.19 148.16,169.75 C 152.0,170.1 155.84,169.04 158.97,166.78 C 160.5,165.67 161.75,164.41 162.81,162.84 C 162.94,162.66 163.04,162.47 163.16,162.28 C 163.21,162.19 163.29,162.09 163.34,162.0 C 163.36,161.98 163.37,161.96 163.38,161.94 C 163.38,161.93 163.38,161.91 163.38,161.91 C 163.36,161.89 163.36,161.89 163.34,161.91 C 159.25,166.72 152.2,167.71 146.94,164.22 C 141.67,160.73 139.85,153.86 142.69,148.22 C 145.52,142.58 152.12,139.96 158.06,142.09 C 159.53,142.62 160.78,143.35 161.97,144.38 C 162.25,144.62 162.52,144.86 162.78,145.13 C 162.91,145.26 163.03,145.39 163.16,145.53 C 163.22,145.6 163.28,145.68 163.34,145.75 C 163.37,145.78 163.41,145.81 163.44,145.84 C 163.08,145.23 162.71,144.62 162.28,144.06 C 160.41,141.63 157.85,139.81 154.97,138.78 C 153.14,138.13 151.28,137.82 149.41,137.84 z M 149.91,138.91 C 151.06,138.93 152.19,139.09 153.31,139.38 C 153.85,139.51 154.39,139.68 154.91,139.88 C 155.16,139.97 155.41,140.08 155.66,140.19 C 155.78,140.24 155.91,140.32 156.03,140.38 C 156.08,140.4 156.1,140.44 156.16,140.47 C 153.91,140.08 151.59,140.26 149.44,141.0 C 145.08,142.49 141.8,146.09 140.69,150.56 C 139.57,155.04 140.78,159.73 143.94,163.09 C 147.1,166.47 151.73,167.99 156.28,167.16 C 152.18,169.21 147.37,169.28 143.22,167.31 C 139.07,165.35 136.04,161.57 135.03,157.09 C 134.02,152.62 135.13,147.93 138.03,144.38 C 140.94,140.82 145.32,138.81 149.91,138.91 z"
		 />
		 <path style="fill:#00f;stroke:none;"
		 d="M 161.86,153.49 C 161.86,152.97 161.76,152.46 161.56,151.98 C 161.36,151.51 161.07,151.07 160.71,150.71 C 160.35,150.34 159.91,150.05 159.44,149.86 C 158.96,149.66 158.45,149.56 157.93,149.56 C 157.42,149.56 156.9,149.66 156.43,149.86 C 155.95,150.05 155.52,150.34 155.15,150.71 C 154.79,151.07 154.5,151.51 154.3,151.98 C 154.1,152.46 154.0,152.97 154.0,153.49 C 154.0,154.0 154.1,154.51 154.3,154.99 C 154.5,155.46 154.79,155.9 155.15,156.26 C 155.52,156.63 155.95,156.92 156.43,157.12 C 156.9,157.31 157.42,157.41 157.93,157.41 C 158.45,157.41 158.96,157.31 159.44,157.12 C 159.91,156.92 160.35,156.63 160.71,156.26 C 161.07,155.9 161.36,155.46 161.56,154.99 C 161.76,154.51 161.86,154.0 161.86,153.49 z"
		 />
		<!-- Prism Reference -->
		<cam mingh:cam="prism" mingh:style="plating:L;bead:NA;laser:5;workshop:7">M10</cam> 
	 </g>

</svg>
